<svg width="300" height="300" viewBox="0 0 300 300" fill="none" xmlns="http://www.w3.org/2000/svg">
<path fill-rule="evenodd" clip-rule="evenodd" d="M74.9625 43.875C75.1094 43.2563 75.2656 42.6469 75.4344 42.0406C76.2094 39.2594 77.225 36.6344 78.3969 34.1531C83.3937 23.5719 91.5781 15.6344 101.481 10.2094C110.978 5.00938 122.084 2.15313 133.478 1.45626C150.269 0.428134 167.709 4.13439 181.628 12.0406C191.778 17.8031 200.059 25.8031 204.953 35.7844C205.459 36.825 205.972 37.8438 206.494 38.8344C229.447 30.6063 248.838 32.7094 263.569 40.6781C286.244 52.9531 297.972 79.2688 294.678 104.213C291.106 131.303 269.934 156.944 225.7 160.747V195.775C225.7 196.641 225.238 197.441 224.491 197.875C223.744 198.313 222.819 198.322 222.066 197.891C173.819 170.575 123.694 170.447 71.65 197.928C70.8969 198.325 69.9875 198.3 69.2562 197.863C68.5281 197.416 68.0812 196.628 68.0812 195.775V167.294C22.4844 165.431 1.39998 134.05 2.8531 103.5C4.31873 72.625 28.8562 42.2906 74.9625 43.875Z" fill="#F2E9E4"/>
<mask id="mask0_1_1371" style="mask-type:luminance" maskUnits="userSpaceOnUse" x="2" y="0" width="294" height="199">
<path d="M2.40002 0.799988H296V198.6H2.40002V0.799988Z" fill="white"/>
</mask>
<g mask="url(#mask0_1_1371)">
<path fill-rule="evenodd" clip-rule="evenodd" d="M74.7125 43.55C74.8406 43.0156 74.9781 42.4875 75.1219 41.9594C75.9031 39.1594 76.925 36.5156 78.1031 34.0156C83.1312 23.375 91.3625 15.3875 101.328 9.93435C110.866 4.71248 122.016 1.83748 133.459 1.13748C150.312 0.109355 167.816 3.8281 181.788 11.7625C192 17.5625 200.322 25.6094 205.247 35.65C205.706 36.6 206.175 37.5281 206.653 38.4406C229.594 30.2812 248.981 32.4219 263.725 40.4C286.519 52.7375 298.309 79.1875 295.003 104.262C291.419 131.416 270.256 157.144 226.025 161.053V195.781C226.025 196.762 225.503 197.672 224.656 198.166C223.806 198.656 222.762 198.662 221.906 198.181C173.762 170.919 123.738 170.8 71.8031 198.219C70.9469 198.672 69.9188 198.641 69.0906 198.141C68.2625 197.644 67.7562 196.747 67.7562 195.781V167.609C22.1469 165.609 1.075 134.125 2.52813 103.494C4 72.525 28.55 42.0812 74.7125 43.55ZM123.819 125.084C107.031 127.887 90.1844 133.678 73.2719 142.416V191.256C124.116 165.725 173.181 165.841 220.509 191.116V146.019C182.2 165.072 145.697 152.45 124.225 125.494C124.078 125.372 123.944 125.234 123.819 125.084ZM243.647 64.9156C235.338 67.0719 228.131 66.2281 221.75 62.9969C218.816 61.5094 216.069 59.4937 213.503 57.0094C208.584 52.2531 204.375 45.7312 200.494 37.9937C195.988 28.9281 188.359 21.7406 179.097 16.5187C165.981 9.1281 149.588 5.69686 133.797 6.6531C123.169 7.29998 112.825 9.94998 103.934 14.7312C94.8938 19.5969 87.3719 26.6844 82.6625 36.2219C81.5531 38.4687 80.6063 40.85 79.8 43.3625C79.0281 45.7531 78.3656 48.25 77.8938 50.8906C77.1406 54.9344 77.0719 60.8656 77.5125 66.6594C77.9844 72.8406 79.0062 78.8437 80.4844 82.2594C80.7063 82.7312 80.5062 83.2906 80.0344 83.5156C79.5656 83.7469 79 83.5469 78.7688 83.0812C76.9375 79.6375 75.3219 73.45 74.3344 67.025C73.3906 60.9094 73.05 54.6 73.5312 50.2375C73.5781 49.8375 73.6312 49.4375 73.6844 49.0406C31.875 48.0937 9.38125 75.525 8.04063 103.753C6.7125 131.722 26.2125 160.134 67.7562 162.087V155.572C64.5781 156.259 61.6094 156.519 58.8531 156.244C56.55 156.012 54.3875 155.459 52.4031 154.562C49.925 153.431 47.7031 151.853 45.7594 149.791C44.0594 147.984 42.5875 145.875 41.2906 143.394C40.9625 142.887 41.1 142.2 41.6063 141.862C42.1125 141.525 42.7938 141.656 43.1406 142.15C44.4313 143.669 45.7844 144.934 47.1906 146.066C49.3719 147.822 51.7062 148.984 54.225 149.759C55.8344 150.25 57.5188 150.528 59.3063 150.634C61.7594 150.787 64.4031 150.616 67.2531 149.966L67.7562 149.847V143.619L66.1313 143.259H66.1188C60.4781 141.781 55.6031 139.531 51.5594 136.416C48.675 134.191 46.1875 131.556 44.1469 128.509C41.7875 124.991 39.9938 120.953 38.7531 116.416C37.6875 112.522 37.0469 108.284 36.775 103.675C36.7062 103.072 37.1375 102.522 37.7438 102.444C38.35 102.372 38.9031 102.794 38.9875 103.4C39.6437 106.812 40.5219 109.959 41.5531 112.906C43.2563 117.772 45.5188 121.925 48.3156 125.481C50.2469 127.941 52.4469 130.075 54.95 131.922C58.5063 134.544 62.6594 136.572 67.5375 137.872L69.2688 138.284C86.3625 129.281 103.394 123.219 120.363 120.087C119.738 119.075 119.103 117.975 118.484 116.791C117.119 114.169 115.819 111.137 114.778 107.722C114.128 105.575 113.547 103.291 113.188 100.847C112.969 99.3375 112.772 97.7812 112.775 96.1594C112.775 93.6562 113.134 91.1437 113.628 88.4469C113.659 87.925 114.097 87.5187 114.619 87.5344C115.141 87.5469 115.556 87.975 115.556 88.4969C115.891 91.0719 116.497 93.3844 117.013 95.6969C117.334 97.15 117.616 98.5562 117.95 99.9187C118.484 102.097 119.081 104.153 119.766 106.075C120.853 109.122 122.128 111.822 123.4 114.181C124.928 117.012 126.453 119.344 127.75 121.125C127.872 121.228 127.984 121.353 128.091 121.487C148.194 147.197 182.881 159.141 219.172 140.512C219.244 140.469 219.312 140.431 219.391 140.394C219.434 140.372 219.475 140.353 219.516 140.331C220.194 139.981 220.878 139.616 221.556 139.244C224.006 137.825 227.366 135.487 230.866 131.856C232.875 129.769 234.931 127.272 236.913 124.266C238.95 121.178 240.894 117.584 242.659 113.359C244.141 109.809 245.569 105.903 246.678 101.425C246.781 100.869 247.312 100.494 247.875 100.587C248.434 100.681 248.812 101.209 248.728 101.772C248.294 106.553 247.566 110.837 246.481 114.687C245.137 119.453 243.316 123.509 241.331 126.984C239.338 130.469 237.128 133.341 234.928 135.7C231.766 139.103 228.616 141.447 226.025 143.053V147.569C229.128 146.922 231.797 145.931 234.153 144.819C235.981 143.953 237.625 143.044 239.066 141.909C241.678 139.856 243.716 137.409 245.097 134.266C245.288 133.694 245.909 133.369 246.488 133.553C247.069 133.731 247.4 134.344 247.228 134.928C246.781 137.381 245.997 139.603 244.856 141.675C243.672 143.822 242.1 145.712 240.125 147.384C238.684 148.603 237.009 149.653 235.125 150.547C232.731 151.678 229.969 152.475 226.894 153.087L226.025 153.234V155.512C266.519 151.753 286.238 128.509 289.531 103.537C292.55 80.6687 281.888 56.5031 261.097 45.25C247.703 38 230.15 36.175 209.403 43.3187C211.778 47.225 214.322 50.6312 217.05 53.4781C219.206 55.7281 221.453 57.6406 223.903 59.1406C229.341 62.4781 235.616 63.8562 243.181 62.6812C243.797 62.5625 244.394 62.9562 244.522 63.5687C244.647 64.1844 244.253 64.7812 243.647 64.9156Z" fill="#4E342E"/>
</g>
<path d="M52.2938 219.11C52.9501 218.785 53.4844 218.685 53.8938 218.81C54.3094 218.935 54.6688 219.219 54.9688 219.66C55.9688 221.129 55.6501 222.344 54.0188 223.31L52.8313 223.973C51.5063 224.723 50.2001 225.494 48.9188 226.285C47.6438 227.079 46.3251 227.935 44.9688 228.86L43.5313 229.835C45.4219 233.144 47.1188 236.185 48.6188 238.96L54.0188 235.123C54.8001 234.591 55.4188 234.369 55.8688 234.46C56.3251 234.554 56.7126 234.832 57.0313 235.298C57.5313 236.016 57.7094 236.729 57.5688 237.435C57.4251 238.135 56.9626 238.754 56.1813 239.285L50.7438 243.01L51.4813 244.51C53.4376 248.31 54.1969 251.454 53.7563 253.935C53.3219 256.419 51.8344 258.532 49.2938 260.273C47.8501 261.266 46.3094 261.86 44.6688 262.06C43.0344 262.26 41.6313 262.107 40.4563 261.598C39.9751 261.407 39.5626 261.057 39.2188 260.548C38.8688 260.041 38.6876 259.516 38.6688 258.973C38.6438 258.423 38.8126 258.023 39.1688 257.773C39.4282 257.598 39.7376 257.51 40.0938 257.51C40.4532 257.51 40.9907 257.623 41.7063 257.848C43.6313 258.491 45.3469 258.294 46.8563 257.26C48.0563 256.435 48.7313 255.254 48.8813 253.71C49.0313 252.169 48.4938 250.254 47.2688 247.96L46.2688 246.085L44.7438 247.135C44.2501 247.469 43.7344 247.619 43.1938 247.585C42.6501 247.554 42.2094 247.282 41.8688 246.773C41.4126 246.116 41.2313 245.494 41.3313 244.91C41.4313 244.329 41.8157 243.807 42.4813 243.348C43.0719 242.948 43.6438 242.544 44.1938 242.135C42.8501 239.629 41.1907 236.61 39.2063 233.085C37.0563 234.86 35.7001 236.332 35.1313 237.498C34.5657 238.666 34.6407 239.769 35.3563 240.81C35.8501 241.535 36.5313 242.082 37.4063 242.448C37.6657 242.548 37.8563 242.694 37.9813 242.885C38.2501 243.269 38.2688 243.748 38.0438 244.323C37.8126 244.898 37.4313 245.369 36.9063 245.735C36.3313 246.129 35.7282 246.285 35.0938 246.21C34.6938 246.185 34.1532 245.923 33.4688 245.423C32.7782 244.923 32.1563 244.273 31.6063 243.473C29.8063 240.848 29.8532 238.016 31.7438 234.973C33.6282 231.932 37.1688 228.632 42.3688 225.073C45.9688 222.607 49.2751 220.619 52.2938 219.11Z" fill="#4E342E"/>
<path d="M67.3736 248.157C66.5048 248.607 65.6548 248.475 64.8236 247.757C63.9986 247.032 63.0611 245.666 62.0111 243.657C60.4611 240.707 59.4079 237.678 58.8486 234.569C58.7173 233.803 58.8048 233.144 59.1111 232.594C59.4111 232.038 59.9829 231.538 60.8236 231.094C61.2829 230.863 61.6329 230.757 61.8736 230.782C62.1173 230.8 62.3204 230.966 62.4861 231.282C62.6798 231.65 62.9361 232.553 63.2611 233.994C63.5111 235.038 63.7423 235.938 63.9611 236.694C64.1861 237.444 64.5173 238.341 64.9611 239.382C64.6861 237.032 64.6892 235 64.9736 233.282C65.2642 231.566 65.7173 230.213 66.3361 229.219C66.9611 228.219 67.6517 227.519 68.4111 227.119C69.8861 226.353 71.0111 226.713 71.7861 228.194C71.9423 228.494 72.2236 229.263 72.6236 230.494C72.9142 231.503 73.1173 232.119 73.2361 232.344C73.6517 233.144 74.1423 233.394 74.7111 233.094C75.3423 232.763 75.9017 231.832 76.3861 230.307C76.5173 229.85 76.7423 229.541 77.0611 229.382C77.3611 229.225 77.6611 229.232 77.9611 229.407C78.2673 229.582 78.5392 229.888 78.7736 230.319C79.2142 231.163 79.3361 231.941 79.1361 232.657C78.8361 233.65 78.3798 234.6 77.7736 235.507C77.1736 236.416 76.3923 237.119 75.4361 237.619C74.2267 238.253 73.1486 238.428 72.1986 238.144C71.2548 237.863 70.5111 237.194 69.9611 236.144C69.7767 235.813 69.6298 235.457 69.5236 235.082C69.3298 234.6 69.1923 234.278 69.1111 234.119C68.9173 233.753 68.6923 233.638 68.4361 233.769C68.1017 233.944 67.8548 234.563 67.6986 235.619C67.5392 236.678 67.5142 237.978 67.6236 239.519C67.7392 241.053 67.9892 242.6 68.3736 244.157C68.6798 245.366 68.7642 246.244 68.6236 246.794C68.4892 247.338 68.0736 247.791 67.3736 248.157Z" fill="#4E342E"/>
<path d="M77.4263 220.878C76.4357 221.312 75.5951 221.409 74.9013 221.165C74.2013 220.925 73.6732 220.397 73.3138 219.578C72.9482 218.753 72.9701 217.925 73.3763 217.09C73.7763 216.25 74.4638 215.615 75.4388 215.19C76.3076 214.809 77.1076 214.709 77.8388 214.89C78.5638 215.075 79.0951 215.559 79.4263 216.34C79.8419 217.284 79.8638 218.165 79.4888 218.99C79.1232 219.809 78.4357 220.437 77.4263 220.878ZM85.4263 239.965C83.9013 240.634 82.5544 240.578 81.3888 239.803C80.2201 239.022 79.2451 237.734 78.4513 235.94C77.9951 234.89 77.5388 233.475 77.0888 231.69C76.6326 229.909 76.2982 228.209 76.0888 226.59C75.9732 225.74 76.0326 225.1 76.2638 224.665C76.4888 224.225 76.9888 223.834 77.7638 223.49C78.9638 222.965 79.7388 223.109 80.0888 223.915C80.3451 224.5 80.7201 225.965 81.2138 228.315C81.7888 231.14 82.2763 233.012 82.6763 233.928C82.9826 234.637 83.3076 235.14 83.6513 235.44C84.0013 235.734 84.4044 235.778 84.8638 235.578C85.2794 235.397 85.6763 234.872 86.0513 234.003C86.4326 233.137 86.8794 231.84 87.3888 230.115C87.5201 229.659 87.7638 229.35 88.1138 229.19C88.4201 229.059 88.7263 229.097 89.0263 229.303C89.3263 229.503 89.5826 229.853 89.8013 230.353C90.2169 231.303 90.3169 232.128 90.1013 232.828C89.0076 236.703 87.4513 239.084 85.4263 239.965Z" fill="#4E342E"/>
<path d="M103.516 223.927C103.841 223.812 104.144 223.874 104.428 224.115C104.719 224.349 104.947 224.69 105.116 225.14C105.316 225.699 105.385 226.165 105.328 226.54C105.278 226.915 105.11 227.296 104.828 227.677C103.253 229.827 102.106 231.415 101.391 232.44L99.6408 234.827C100.516 240.168 100.728 244.54 100.278 247.94C99.8345 251.34 98.4658 253.456 96.1658 254.29C94.9408 254.731 93.8033 254.709 92.7533 254.227C91.7033 253.743 90.9533 252.884 90.5033 251.652C89.8845 249.934 89.897 247.846 90.5408 245.39C91.1814 242.931 92.8439 239.593 95.5283 235.377L95.2408 233.877C95.0658 234.677 94.7064 235.374 94.1658 235.965C93.622 236.559 93.0283 236.971 92.3783 237.202C90.8783 237.746 89.4845 237.637 88.2033 236.877C86.9189 236.112 85.9626 234.846 85.3283 233.077C84.6283 231.146 84.4126 229.152 84.6783 227.102C84.947 225.052 85.6283 223.237 86.7283 221.652C87.8345 220.062 89.2283 218.965 90.9033 218.365C91.4345 218.174 91.8283 218.149 92.0783 218.29C92.3345 218.434 92.6189 218.746 92.9283 219.227C93.3595 218.962 93.8783 218.721 94.4783 218.502C95.0783 218.287 95.5345 218.224 95.8533 218.315C96.1783 218.409 96.4345 218.721 96.6283 219.252C96.7345 219.537 96.8064 219.771 96.8408 219.952C97.022 220.727 97.4064 222.734 97.9908 225.965C98.097 226.584 98.222 227.252 98.3658 227.977C98.5064 228.702 98.6564 229.477 98.8158 230.302C100.156 228.177 101.485 226.246 102.803 224.502C103.044 224.202 103.281 224.012 103.516 223.927ZM92.3533 233.077C92.9095 232.877 93.322 232.349 93.5908 231.49C93.8564 230.624 93.8689 229.524 93.6283 228.19L92.5533 221.577C91.5689 221.962 90.7845 222.674 90.2033 223.715C89.6283 224.749 89.3033 225.965 89.2283 227.365C89.1595 228.759 89.372 230.134 89.8658 231.49C90.1314 232.24 90.4783 232.74 90.9033 232.99C91.3345 233.24 91.8189 233.271 92.3533 233.077ZM95.2908 250.615C95.897 250.396 96.3189 249.427 96.5533 247.702C96.7939 245.977 96.6939 243.406 96.2533 239.99C94.9689 242.246 94.1439 244.165 93.7783 245.74C93.4189 247.321 93.4158 248.596 93.7658 249.565C93.9158 249.971 94.1158 250.281 94.3658 250.49C94.622 250.706 94.9314 250.746 95.2908 250.615Z" fill="#4E342E"/>
<path d="M118.769 216.691C119.094 216.61 119.385 216.703 119.644 216.978C119.91 217.253 120.107 217.638 120.232 218.128C120.547 219.322 120.372 220.125 119.707 220.541C118.357 221.466 116.797 222.197 115.032 222.728C115.113 224.947 114.622 226.866 113.557 228.491C112.497 230.11 111.085 231.15 109.319 231.616C107.825 232.016 106.457 231.997 105.207 231.553C103.963 231.103 102.913 230.36 102.057 229.316C101.207 228.266 100.6 227.047 100.232 225.653C99.7316 223.772 99.6504 221.997 99.9816 220.328C100.307 218.653 100.991 217.235 102.032 216.066C103.072 214.9 104.363 214.113 105.907 213.703C107.788 213.213 109.482 213.466 110.982 214.466C112.488 215.46 113.597 216.885 114.307 218.741C115.447 218.36 116.769 217.747 118.269 216.903C118.46 216.797 118.625 216.725 118.769 216.691ZM108.582 227.591C109.382 227.385 109.985 226.878 110.394 226.078C110.8 225.278 110.947 224.247 110.832 222.978C109.922 222.653 109.15 222.125 108.519 221.391C107.885 220.66 107.444 219.822 107.194 218.878C107.085 218.472 107.019 218.063 106.994 217.653L106.807 217.691C105.813 217.96 105.113 218.66 104.707 219.791C104.297 220.916 104.322 222.35 104.782 224.091C105.147 225.46 105.694 226.435 106.419 227.016C107.144 227.591 107.863 227.785 108.582 227.591Z" fill="#4E342E"/>
<path d="M133.337 226.352C132.387 226.395 131.699 226.214 131.274 225.814C130.849 225.408 130.615 224.611 130.574 223.427C130.54 222.627 130.577 221.608 130.687 220.364C130.802 219.114 131.002 217.389 131.287 215.189C131.793 211.124 132.177 207.608 132.437 204.639C132.593 202.789 132.649 201.249 132.599 200.014C132.549 198.858 132.099 198.299 131.249 198.339C130.59 198.364 129.805 198.736 128.899 199.452C127.99 200.17 126.999 201.299 125.924 202.839C125.58 203.349 125.193 203.611 124.762 203.627C124.402 203.636 124.083 203.474 123.799 203.139C123.518 202.799 123.368 202.411 123.349 201.977C123.333 201.57 123.399 201.149 123.549 200.714C123.699 200.283 123.955 199.789 124.312 199.239C125.468 197.464 126.787 196.077 128.262 195.077C129.737 194.077 131.23 193.549 132.749 193.489C134.155 193.433 135.255 193.836 136.049 194.702C136.849 195.561 137.287 196.852 137.362 198.577C137.387 199.27 137.352 200.089 137.262 201.039C137.177 201.983 137.093 202.749 137.012 203.339C136.937 203.933 136.877 204.345 136.837 204.577C138.127 200.336 139.649 197.352 141.399 195.627C143.155 193.895 145.124 192.983 147.299 192.889C148.974 192.824 150.315 193.361 151.324 194.502C152.34 195.636 152.893 197.283 152.987 199.439C153.018 200.289 152.943 201.349 152.762 202.614C153.893 199.024 155.29 196.424 156.949 194.814C158.605 193.199 160.552 192.345 162.787 192.252C164.577 192.177 165.98 192.699 166.999 193.814C168.015 194.924 168.565 196.52 168.649 198.602C168.69 199.727 168.58 201.111 168.324 202.752L166.424 213.852C166.215 215.152 166.13 216.264 166.174 217.189C166.215 218.258 166.499 219.052 167.024 219.577C167.549 220.095 168.262 220.336 169.162 220.302C170.012 220.261 170.827 219.939 171.612 219.339C172.393 218.739 173.305 217.77 174.349 216.427C174.649 216.045 174.99 215.845 175.374 215.827C175.705 215.82 175.974 215.964 176.174 216.264C176.38 216.564 176.493 216.983 176.512 217.514C176.552 218.514 176.34 219.32 175.874 219.927C174.615 221.611 173.349 222.852 172.074 223.652C170.799 224.445 169.44 224.87 167.999 224.927C165.815 225.02 164.077 224.445 162.787 223.202C161.502 221.952 160.815 220.236 160.724 218.052C160.655 216.545 160.874 214.339 161.374 211.439L162.624 204.327C162.665 204.095 162.737 203.683 162.837 203.089C162.943 202.489 163.027 201.927 163.087 201.402C163.143 200.877 163.162 200.358 163.137 199.839C163.102 198.939 162.899 198.274 162.524 197.839C162.155 197.399 161.652 197.189 161.012 197.214C159.818 197.264 158.593 198.095 157.337 199.702C156.077 201.311 154.924 203.936 153.874 207.577C152.824 211.22 152.049 215.933 151.549 221.714C151.424 223.264 151.149 224.311 150.724 224.852C150.299 225.395 149.587 225.686 148.587 225.727C147.712 225.761 147.068 225.583 146.662 225.189C146.252 224.799 146.024 224.036 145.974 222.902C145.93 221.852 146.015 220.474 146.224 218.764C146.43 217.049 146.702 215.02 147.037 212.677C147.968 206.427 148.399 202.402 148.324 200.602C148.28 199.627 148.062 198.914 147.662 198.464C147.268 198.014 146.702 197.808 145.962 197.839C144.712 197.889 143.443 198.658 142.162 200.139C140.887 201.614 139.687 204.199 138.562 207.889C137.443 211.574 136.59 216.524 135.999 222.739C135.88 224.058 135.655 224.983 135.324 225.514C134.999 226.039 134.337 226.32 133.337 226.352Z" fill="#4E342E"/>
<path d="M175.714 226.668C174.13 226.474 172.939 225.746 172.139 224.481C171.339 223.215 171.055 221.653 171.289 219.793C171.546 217.753 172.258 215.881 173.427 214.181C174.602 212.474 176.039 211.165 177.739 210.256C179.446 209.34 181.183 208.99 182.952 209.206C183.508 209.274 183.867 209.431 184.027 209.681C184.192 209.924 184.305 210.328 184.364 210.893C184.905 210.862 185.471 210.881 186.064 210.956C187.314 211.115 187.883 211.64 187.777 212.531C187.708 213.074 187.358 214.324 186.727 216.281C185.777 219.14 185.23 221.143 185.089 222.293C185.039 222.678 185.092 222.999 185.252 223.256C185.408 223.506 185.642 223.649 185.952 223.681C186.433 223.749 187.058 223.512 187.827 222.968C188.592 222.428 189.652 221.531 191.002 220.281C191.352 219.949 191.714 219.806 192.089 219.856C192.421 219.899 192.667 220.087 192.827 220.418C192.983 220.753 193.03 221.187 192.964 221.718C192.839 222.743 192.492 223.506 191.927 224.006C190.727 225.181 189.48 226.137 188.189 226.881C186.905 227.621 185.717 227.921 184.627 227.781C183.783 227.681 183.046 227.299 182.414 226.643C181.78 225.984 181.352 225.131 181.127 224.081C179.533 226.062 177.73 226.924 175.714 226.668ZM177.577 222.981C178.142 223.049 178.721 222.787 179.314 222.193C179.905 221.603 180.38 220.768 180.739 219.693L183.039 212.831C181.964 212.724 180.927 213.003 179.927 213.668C178.927 214.328 178.077 215.262 177.377 216.468C176.677 217.678 176.239 218.999 176.064 220.431C175.964 221.224 176.052 221.831 176.327 222.256C176.602 222.674 177.017 222.915 177.577 222.981Z" fill="#4E342E"/>
<path d="M208.215 223.757C208.546 223.832 208.771 224.051 208.89 224.407C209.015 224.757 209.021 225.167 208.915 225.632C208.79 226.217 208.605 226.654 208.365 226.945C208.121 227.229 207.78 227.454 207.34 227.62C204.865 228.61 203.052 229.348 201.902 229.832L199.14 230.945C197.055 235.935 194.918 239.751 192.727 242.395C190.533 245.035 188.246 246.098 185.865 245.582C184.59 245.298 183.637 244.676 183.002 243.72C182.371 242.76 182.196 241.635 182.477 240.345C182.862 238.56 183.974 236.798 185.815 235.057C187.665 233.323 190.852 231.376 195.377 229.22L195.902 227.807C195.333 228.389 194.665 228.785 193.89 228.995C193.121 229.21 192.402 229.245 191.727 229.095C190.168 228.76 189.046 227.932 188.365 226.607C187.68 225.276 187.54 223.692 187.94 221.857C188.371 219.851 189.243 218.051 190.552 216.457C191.868 214.857 193.418 213.679 195.202 212.92C196.983 212.164 198.743 211.97 200.477 212.345C201.027 212.47 201.371 212.657 201.515 212.907C201.655 213.157 201.73 213.576 201.74 214.157C202.24 214.157 202.802 214.226 203.427 214.357C204.052 214.501 204.477 214.692 204.702 214.932C204.933 215.176 204.99 215.576 204.865 216.132C204.796 216.432 204.733 216.67 204.677 216.845C204.408 217.595 203.668 219.495 202.452 222.545C202.218 223.139 201.968 223.779 201.702 224.47C201.443 225.154 201.158 225.882 200.852 226.657C203.108 225.576 205.258 224.645 207.302 223.87C207.668 223.745 207.971 223.707 208.215 223.757ZM193.915 225.595C194.49 225.72 195.115 225.489 195.79 224.895C196.471 224.304 197.065 223.379 197.565 222.12L200.165 215.945C199.14 215.745 198.102 215.939 197.052 216.52C196.008 217.095 195.09 217.954 194.29 219.095C193.49 220.229 192.933 221.501 192.627 222.907C192.458 223.692 192.493 224.307 192.727 224.757C192.958 225.201 193.355 225.479 193.915 225.595ZM187.077 242.02C187.708 242.151 188.583 241.548 189.702 240.207C190.818 238.873 192.093 236.645 193.527 233.52C191.243 234.751 189.527 235.945 188.377 237.095C187.233 238.245 186.555 239.32 186.34 240.32C186.246 240.751 186.252 241.123 186.352 241.432C186.458 241.739 186.702 241.935 187.077 242.02Z" fill="#4E342E"/>
<path d="M213.462 213.248C212.419 212.948 211.706 212.486 211.325 211.861C210.95 211.236 210.887 210.492 211.137 209.623C211.387 208.758 211.931 208.133 212.775 207.748C213.615 207.358 214.544 207.308 215.562 207.598C216.478 207.858 217.153 208.295 217.587 208.911C218.028 209.52 218.131 210.233 217.9 211.048C217.615 212.033 217.069 212.72 216.262 213.111C215.453 213.504 214.519 213.548 213.462 213.248ZM207.475 233.048C205.865 232.589 204.856 231.689 204.45 230.348C204.05 229.008 204.115 227.395 204.65 225.511C204.965 224.411 205.515 223.033 206.3 221.373C207.09 219.708 207.925 218.186 208.8 216.811C209.24 216.079 209.69 215.617 210.15 215.423C210.606 215.233 211.24 215.254 212.05 215.486C213.315 215.845 213.831 216.445 213.6 217.286C213.415 217.904 212.765 219.273 211.65 221.398C210.281 223.948 209.462 225.704 209.187 226.661C208.969 227.404 208.903 227.998 208.987 228.448C209.069 228.898 209.35 229.192 209.825 229.323C210.265 229.448 210.906 229.298 211.75 228.873C212.6 228.442 213.769 227.723 215.262 226.723C215.653 226.458 216.037 226.373 216.412 226.473C216.728 226.567 216.937 226.786 217.037 227.136C217.137 227.486 217.112 227.92 216.962 228.436C216.678 229.429 216.231 230.129 215.625 230.536C212.306 232.817 209.59 233.654 207.475 233.048Z" fill="#4E342E"/>
<path d="M233.093 233.697C233.643 233.897 233.784 234.372 233.518 235.122C233.174 236.062 232.696 236.725 232.081 237.109C231.471 237.49 230.799 237.55 230.068 237.284L228.743 236.759C228.509 236.65 228.162 236.515 227.706 236.359C227.312 237.765 226.871 239.162 226.381 240.547C225.062 244.197 223.437 247.2 221.506 249.559C219.581 251.925 217.599 252.747 215.568 252.022C214.193 251.528 213.434 250.362 213.293 248.522C213.149 246.678 213.487 244.622 214.306 242.347C215.312 239.522 216.624 236.84 218.243 234.309C216.974 235.265 215.674 235.509 214.343 235.034C213.009 234.55 212.099 233.597 211.618 232.172C211.143 230.747 211.218 229.153 211.843 227.384C212.534 225.469 213.637 223.815 215.156 222.422C216.681 221.031 218.384 220.084 220.268 219.584C222.159 219.078 223.962 219.128 225.681 219.734C226.256 219.944 226.634 220.297 226.818 220.797C227.309 220.106 227.821 219.706 228.356 219.597C228.887 219.49 229.543 219.572 230.318 219.847C231.143 220.147 231.649 220.469 231.843 220.809C232.034 221.153 232.034 221.547 231.843 221.997C231.743 222.281 231.346 222.894 230.656 223.834C229.971 224.778 229.521 225.403 229.306 225.709C228.437 226.928 227.487 228.278 226.456 229.759C225.421 231.244 224.524 232.615 223.768 233.872C221.599 237.453 219.984 240.737 218.918 243.722C218.518 244.837 218.268 245.822 218.168 246.672C218.068 247.522 218.162 247.997 218.456 248.097C218.696 248.187 219.106 247.872 219.681 247.147C220.256 246.422 220.884 245.403 221.568 244.097C222.259 242.787 222.881 241.353 223.431 239.797C224.087 237.962 224.593 236.303 224.943 234.822C224.959 234.697 225.012 234.5 225.106 234.234C225.396 233.434 225.837 232.84 226.431 232.459C227.021 232.078 227.681 232.015 228.406 232.272C228.496 232.306 229.424 232.594 231.193 233.134C231.943 233.325 232.574 233.512 233.093 233.697ZM217.106 231.884C217.662 232.084 218.318 231.934 219.068 231.434C219.818 230.928 220.481 230.228 221.056 229.334L224.981 223.297C223.906 222.94 222.796 222.965 221.656 223.372C220.512 223.781 219.468 224.49 218.518 225.497C217.568 226.506 216.849 227.678 216.368 229.009C216.099 229.753 216.034 230.372 216.168 230.872C216.309 231.372 216.621 231.709 217.106 231.884Z" fill="#4E342E"/>
<path d="M228.576 240.974C227.533 240.49 226.901 239.612 226.676 238.337C226.458 237.062 226.683 235.699 227.351 234.249C228.167 232.499 229.029 230.956 229.939 229.612C230.845 228.262 231.945 226.896 233.239 225.512C233.789 224.921 234.342 224.571 234.901 224.462C235.467 224.346 236.208 224.499 237.126 224.924C237.633 225.159 237.951 225.406 238.076 225.662C238.201 225.921 238.183 226.218 238.026 226.549C237.942 226.734 237.52 227.299 236.764 228.249C236.129 228.999 235.579 229.696 235.114 230.337C233.52 232.571 232.533 234.096 232.151 234.912C231.926 235.406 231.826 235.774 231.851 236.024C231.876 236.274 232.017 236.459 232.276 236.574C232.626 236.734 233.226 236.587 234.076 236.137C234.926 235.681 235.976 234.881 237.226 233.737C238.476 232.587 239.864 231.106 241.389 229.287C241.895 228.671 242.414 228.299 242.939 228.174C243.464 228.049 244.108 228.162 244.876 228.512C245.417 228.762 245.758 228.999 245.901 229.224C246.051 229.449 246.045 229.737 245.889 230.087C245.614 230.671 244.579 232.134 242.789 234.474C240.764 237.159 239.589 238.849 239.264 239.549C239.054 239.999 238.983 240.387 239.051 240.712C239.126 241.037 239.317 241.268 239.626 241.412C240.092 241.627 240.779 241.599 241.689 241.324C242.595 241.056 243.879 240.531 245.539 239.749C245.97 239.549 246.364 239.527 246.714 239.687C247.02 239.827 247.195 240.077 247.239 240.437C247.279 240.793 247.189 241.218 246.964 241.712C246.529 242.643 245.97 243.265 245.289 243.574C243.714 244.349 242.167 244.865 240.651 245.124C239.133 245.381 237.639 245.168 236.164 244.487C235.045 243.968 234.426 243.156 234.301 242.049C234.176 240.949 234.476 239.618 235.201 238.062C234.067 239.452 232.908 240.39 231.726 240.874C230.542 241.365 229.492 241.399 228.576 240.974Z" fill="#4E342E"/>
<path d="M259.022 247.407C259.303 247.573 259.45 247.835 259.459 248.195C259.475 248.56 259.35 248.976 259.084 249.445C258.575 250.345 257.975 250.914 257.284 251.157C255.884 251.698 254.187 251.96 252.197 251.945C250.203 251.926 248.35 251.426 246.634 250.445C244.291 249.11 242.837 247.439 242.272 245.432C241.703 243.426 242.05 241.317 243.309 239.107C244.184 237.567 245.322 236.317 246.722 235.357C248.128 234.401 249.628 233.857 251.222 233.732C252.822 233.607 254.347 233.957 255.797 234.782C257.087 235.517 257.903 236.495 258.247 237.72C258.587 238.939 258.384 240.204 257.634 241.52C256.75 243.064 255.441 244.07 253.709 244.545C251.975 245.014 249.609 244.817 246.609 243.957C246.575 245.307 247.337 246.426 248.897 247.32C249.903 247.895 251.25 248.195 252.934 248.22C254.616 248.251 256.25 247.97 257.834 247.37C258.291 247.201 258.687 247.214 259.022 247.407ZM253.359 237.732C252.534 237.257 251.559 237.342 250.434 237.982C249.316 238.626 248.372 239.629 247.597 240.995L247.559 241.057C249.059 241.501 250.362 241.62 251.472 241.42C252.587 241.22 253.378 240.707 253.847 239.882C254.097 239.457 254.175 239.054 254.084 238.67C254 238.279 253.759 237.967 253.359 237.732Z" fill="#4E342E"/>
</svg>
